<svg width="164" height="47" viewBox="0 0 164 47" fill="none" xmlns="http://www.w3.org/2000/svg">
<g filter="url(#filter0_d_3_8)">
<path d="M19.4199 5.44531C19.5137 5.05859 19.5957 4.77734 19.666 4.60156C19.7363 4.42578 19.8887 4.30859 20.123 4.25L24.6758 3.17773C24.8164 3.13086 24.9688 3.10742 25.1328 3.10742C25.2852 3.10742 25.3965 3.16016 25.4668 3.26562C25.5371 3.37109 25.5723 3.57031 25.5723 3.86328C25.502 4.14453 25.4434 4.57813 25.3965 5.16406C25.3496 5.73828 25.3145 6.37109 25.291 7.0625C25.2676 7.75391 25.25 8.45117 25.2383 9.1543C25.2266 9.8457 25.2207 10.4492 25.2207 10.9648V11.9316C25.2207 12.6582 25.2148 13.4492 25.2031 14.3047C25.1914 15.1602 25.1738 16.0273 25.1504 16.9062C25.1387 17.7852 25.1211 18.6523 25.0977 19.5078C25.0742 20.3633 25.0508 21.166 25.0273 21.916L24.9219 24.9219C24.9102 24.9805 24.9043 25.0332 24.9043 25.0801C24.9043 25.127 24.9043 25.1738 24.9043 25.2207V25.4844C24.9043 25.6836 24.9043 25.8535 24.9043 25.9941C24.916 26.123 24.9219 26.2402 24.9219 26.3457C24.9219 26.4629 24.9102 26.5684 24.8867 26.6621C24.875 26.7559 24.834 26.8496 24.7637 26.9434C24.6934 27.0254 24.5938 27.1133 24.4648 27.207C24.3477 27.3008 24.1836 27.418 23.9727 27.5586C23.8555 27.6406 23.6621 27.7637 23.3926 27.9277C23.123 28.0801 22.8242 28.2559 22.4961 28.4551C22.168 28.6543 21.8281 28.8594 21.4766 29.0703C21.125 29.2812 20.8027 29.4688 20.5098 29.6328C20.2168 29.8086 19.9766 29.9492 19.7891 30.0547C19.6133 30.1602 19.5254 30.2129 19.5254 30.2129L11.3691 17.6621L10.6309 27.9453C10.6191 28.0391 10.5957 28.1387 10.5605 28.2441C10.5371 28.3496 10.4609 28.4316 10.332 28.4902C10.2266 28.5371 10.0449 28.6133 9.78711 28.7188C9.5293 28.8125 9.22461 28.9238 8.87305 29.0527C8.5332 29.1816 8.16992 29.3105 7.7832 29.4395C7.4082 29.5801 7.05078 29.7031 6.71094 29.8086C6.37109 29.9258 6.06641 30.0195 5.79688 30.0898C5.53906 30.1602 5.36328 30.1953 5.26953 30.1953C5.09375 30.1953 4.94727 30.1484 4.83008 30.0547C4.71289 29.9609 4.6543 29.791 4.6543 29.5449C4.77148 28.0801 4.90625 26.4863 5.05859 24.7637C5.21094 23.0293 5.35742 21.2539 5.49805 19.4375C5.63867 17.6211 5.76758 15.8105 5.88477 14.0059C6.01367 12.1895 6.11914 10.4668 6.20117 8.83789C6.20117 8.79102 6.125 8.63867 5.97266 8.38086C5.83203 8.11133 5.66797 7.82422 5.48047 7.51953C5.30469 7.20312 5.14062 6.91016 4.98828 6.64062C4.84766 6.35938 4.77734 6.18359 4.77734 6.11328C4.77734 6.03125 4.81836 5.95508 4.90039 5.88477C4.99414 5.81445 5.14062 5.7207 5.33984 5.60352L10.0332 2.94922C10.0684 2.94922 10.1152 2.94336 10.1738 2.93164C10.2441 2.91992 10.3027 2.91406 10.3496 2.91406C10.4785 2.91406 10.5781 2.93164 10.6484 2.9668C10.7305 2.99023 10.8125 3.07812 10.8945 3.23047L19.4199 18.6113V5.44531ZM28.5078 21.5469C28.6602 19.9414 28.8125 18.3535 28.9648 16.7832C29.1172 15.2129 29.252 13.6016 29.3691 11.9492C29.3926 11.5625 29.4277 11.2988 29.4746 11.1582C29.5332 11.0059 29.668 10.9062 29.8789 10.8594C30.875 10.6602 31.918 10.4551 33.0078 10.2441C34.0977 10.0215 35.1523 9.74023 36.1719 9.40039C36.207 9.38867 36.2598 9.38281 36.3301 9.38281C36.459 9.38281 36.5234 9.42969 36.5234 9.52344L34.9414 26.6445C34.9062 27.0312 34.8652 27.3008 34.8184 27.4531C34.7715 27.5938 34.6426 27.6875 34.4316 27.7344C33.4355 28.0391 32.4277 28.3789 31.4082 28.7539C30.3887 29.1289 29.3105 29.5098 28.1738 29.8965C28.1387 29.9082 28.0859 29.9141 28.0156 29.9141C27.8867 29.9141 27.8223 29.8555 27.8223 29.7383C27.8223 29.7266 27.834 29.5684 27.8574 29.2637C27.8809 28.959 27.9102 28.5664 27.9453 28.0859C27.9922 27.6055 28.0391 27.0664 28.0859 26.4688C28.1328 25.8711 28.1797 25.2734 28.2266 24.6758C28.2852 24.0781 28.3379 23.5039 28.3848 22.9531C28.4316 22.4023 28.4727 21.9336 28.5078 21.5469ZM29.8262 7.51953C29.8613 7.01562 29.8848 6.62891 29.8965 6.35938C29.9199 6.08984 29.9375 5.89062 29.9492 5.76172C29.9609 5.62109 29.9668 5.5332 29.9668 5.49805C29.9668 5.46289 29.9668 5.43945 29.9668 5.42773C29.9785 5.4043 29.9844 5.36914 29.9844 5.32227C29.9961 5.26367 30.0078 5.15234 30.0195 4.98828C30.0312 4.8125 30.0488 4.56055 30.0723 4.23242C30.0957 3.9043 30.1309 3.45313 30.1777 2.87891C30.2012 2.49219 30.2363 2.22852 30.2832 2.08789C30.3418 1.93555 30.4766 1.83594 30.6875 1.78906C31.6836 1.58984 32.7266 1.38477 33.8164 1.17383C34.9062 0.951172 35.9609 0.669922 36.9805 0.330078C37.0156 0.318359 37.0684 0.3125 37.1387 0.3125C37.1738 0.382812 37.2207 0.429688 37.2793 0.453125L37.332 0.488281L36.9453 5.30469C36.9102 5.69141 36.8633 5.96094 36.8047 6.11328C36.7578 6.26562 36.6348 6.35938 36.4355 6.39453C35.4395 6.58203 34.4316 6.78711 33.4121 7.00977C32.3926 7.23242 31.3145 7.45508 30.1777 7.67773C30.1426 7.68945 30.0898 7.69531 30.0195 7.69531C29.8906 7.69531 29.8262 7.63672 29.8262 7.51953ZM51.623 16.4668C51.5059 16.1973 51.3418 15.9219 51.1309 15.6406C50.9316 15.3594 50.6973 15.1016 50.4277 14.8672C50.1582 14.6328 49.8652 14.4453 49.5488 14.3047C49.2324 14.1523 48.8984 14.0762 48.5469 14.0762C48.0664 14.0762 47.6152 14.2754 47.1934 14.6738C46.7715 15.0723 46.4023 15.6055 46.0859 16.2734C45.7695 16.9297 45.5176 17.6855 45.3301 18.541C45.1543 19.3848 45.0664 20.2637 45.0664 21.1777C45.0664 21.7402 45.1133 22.2734 45.207 22.7773C45.3125 23.2695 45.4707 23.7031 45.6816 24.0781C45.8926 24.4531 46.1621 24.752 46.4902 24.9746C46.8301 25.1973 47.2344 25.3086 47.7031 25.3086C48.4062 25.3086 49.0508 25.0918 49.6367 24.6582C50.2227 24.2129 50.7207 23.6387 51.1309 22.9355C51.1426 22.6895 51.1602 22.3965 51.1836 22.0566C51.207 21.7168 51.2363 21.3066 51.2715 20.8262C51.3066 20.334 51.3477 19.7598 51.3945 19.1035C51.4531 18.4355 51.5234 17.6445 51.6055 16.7305L51.623 16.4668ZM57.4414 27.084C57.3242 28.2441 57.0605 29.3281 56.6504 30.3359C56.2402 31.3438 55.7188 32.2637 55.0859 33.0957C54.4648 33.9395 53.75 34.6895 52.9414 35.3457C52.1445 36.0137 51.2949 36.5762 50.3926 37.0332C49.502 37.4902 48.582 37.8359 47.6328 38.0703C46.6836 38.3164 45.7461 38.4395 44.8203 38.4395C44.3281 38.4395 43.8242 38.4219 43.3086 38.3867C42.793 38.3516 42.2891 38.2812 41.7969 38.1758C41.3047 38.082 40.8359 37.9414 40.3906 37.7539C39.9453 37.5781 39.5469 37.3496 39.1953 37.0684V37.0508C39.1953 36.9922 39.2363 36.7871 39.3184 36.4355C39.4121 36.084 39.5176 35.668 39.6348 35.1875C39.7637 34.7188 39.8926 34.2324 40.0215 33.7285C40.1621 33.2246 40.2793 32.791 40.373 32.4277C40.4199 32.2637 40.4668 32.1523 40.5137 32.0938C40.5605 32.0352 40.6133 32.0059 40.6719 32.0059C40.7422 32.0059 40.7832 32.0117 40.7949 32.0234C41.1348 32.2461 41.4512 32.4277 41.7441 32.5684C42.0488 32.7207 42.3652 32.8379 42.6934 32.9199C43.0332 33.0137 43.4023 33.0781 43.8008 33.1133C44.1992 33.1484 44.6621 33.166 45.1895 33.166C46.0098 33.166 46.7363 33.0078 47.3691 32.6914C48.002 32.375 48.5469 31.9648 49.0039 31.4609C49.4609 30.957 49.8242 30.4004 50.0938 29.791C50.375 29.1934 50.5684 28.6016 50.6738 28.0156C49.8301 28.5781 48.9746 29.0352 48.1074 29.3867C47.2402 29.7383 46.3672 29.9141 45.4883 29.9141C44.2812 29.9141 43.2383 29.668 42.3594 29.1758C41.4805 28.6953 40.7539 28.0449 40.1797 27.2246C39.6055 26.4043 39.1777 25.4668 38.8965 24.4121C38.627 23.3457 38.4922 22.2324 38.4922 21.0723C38.4922 20.1582 38.5742 19.2383 38.7383 18.3125C38.9141 17.375 39.166 16.4727 39.4941 15.6055C39.834 14.7383 40.25 13.9297 40.7422 13.1797C41.2344 12.418 41.8027 11.7559 42.4473 11.1934C43.0918 10.6309 43.8066 10.1914 44.5918 9.875C45.377 9.54688 46.2324 9.38281 47.1582 9.38281C48.166 9.38281 49.0977 9.60547 49.9531 10.0508C50.8203 10.4961 51.6055 11.0469 52.3086 11.7031C52.332 11.4922 52.3496 11.3281 52.3613 11.2109C52.373 11.082 52.4023 10.9824 52.4492 10.9121C52.4961 10.8418 52.5723 10.7891 52.6777 10.7539C52.7949 10.7188 52.959 10.6777 53.1699 10.6309C53.2988 10.6074 53.5332 10.5605 53.873 10.4902C54.2129 10.4082 54.6172 10.3145 55.0859 10.209C55.5547 10.1035 56.0703 9.99219 56.6328 9.875C57.1953 9.75781 57.7637 9.63477 58.3379 9.50586C58.4785 9.4707 58.6074 9.45312 58.7246 9.45312C59.0879 9.45312 59.2695 9.6875 59.2695 10.1562C59.2695 10.2148 59.2695 10.2734 59.2695 10.332C59.2695 10.3789 59.2637 10.4316 59.252 10.4902L57.4414 27.084ZM63.5938 3.44141C63.5938 3.37109 63.5879 3.30664 63.5762 3.24805C63.5762 3.18945 63.5762 3.13086 63.5762 3.07227C63.5762 2.9668 63.6172 2.87891 63.6992 2.80859C63.7812 2.72656 63.9805 2.64453 64.2969 2.5625L69.2363 1.38477C69.3652 1.36133 69.5352 1.30859 69.7461 1.22656C69.957 1.14453 70.1621 1.10352 70.3613 1.10352C70.7715 1.10352 70.9766 1.29102 70.9766 1.66602C70.9766 1.68945 70.959 1.92969 70.9238 2.38672C70.8887 2.84375 70.8418 3.41211 70.7832 4.0918C70.7246 4.77148 70.6602 5.51562 70.5898 6.32422C70.5195 7.12109 70.4492 7.88281 70.3789 8.60938C70.3086 9.33594 70.2441 9.97461 70.1855 10.5254C70.127 11.0645 70.0801 11.416 70.0449 11.5801C70.5957 11.2754 71.1699 10.9883 71.7676 10.7188C72.3652 10.4492 72.9629 10.2148 73.5605 10.0156C74.1699 9.81641 74.7734 9.66406 75.3711 9.55859C75.9805 9.44141 76.5664 9.38281 77.1289 9.38281C77.8438 9.38281 78.5117 9.48828 79.1328 9.69922C79.7539 9.89844 80.293 10.2383 80.75 10.7188C81.2188 11.1875 81.582 11.8086 81.8398 12.582C82.1094 13.3438 82.2441 14.2812 82.2441 15.3945C82.2441 15.6758 82.2383 15.9688 82.2266 16.2734C82.2148 16.5664 82.1914 16.8711 82.1562 17.1875L81.4004 24.377C81.3418 24.8691 81.3066 25.3848 81.2949 25.9238C81.2832 26.4512 81.2773 26.9961 81.2773 27.5586C81.2773 27.6523 81.2773 27.7344 81.2773 27.8047C81.2891 27.8633 81.2949 27.916 81.2949 27.9629C81.2949 28.0684 81.248 28.1504 81.1543 28.209C81.0723 28.2676 80.8789 28.3438 80.5742 28.4375L76.2676 29.6328C76.1387 29.668 75.9688 29.7207 75.7578 29.791C75.5469 29.873 75.3418 29.9141 75.1426 29.9141C74.9434 29.9141 74.791 29.8672 74.6855 29.7734C74.5801 29.6914 74.5273 29.5215 74.5273 29.2637C74.6094 28.3848 74.6738 27.6758 74.7207 27.1367C74.7793 26.5977 74.8203 26.1699 74.8438 25.8535C74.8789 25.5254 74.9082 25.2793 74.9316 25.1152C74.9551 24.9395 74.9727 24.7871 74.9844 24.6582C74.9961 24.5176 75.0137 24.3652 75.0371 24.2012C75.0605 24.0254 75.084 23.7734 75.1074 23.4453C75.1426 23.1172 75.1836 22.6836 75.2305 22.1445C75.2891 21.6055 75.3594 20.8965 75.4414 20.0176C75.4883 19.5488 75.5352 19.0859 75.582 18.6289C75.6406 18.1602 75.6699 17.7324 75.6699 17.3457C75.6699 16.8535 75.6406 16.4082 75.582 16.0098C75.5352 15.5996 75.4414 15.2539 75.3008 14.9727C75.1719 14.6797 74.9902 14.4512 74.7559 14.2871C74.5215 14.123 74.2227 14.041 73.8594 14.041C73.5898 14.041 73.2207 14.0996 72.752 14.2168C72.2949 14.334 71.832 14.5273 71.3633 14.7969C70.9062 15.0664 70.4961 15.4238 70.1328 15.8691C69.7812 16.3027 69.582 16.8418 69.5352 17.4863C69.4414 18.3887 69.3652 19.127 69.3066 19.7012C69.2598 20.2754 69.2188 20.75 69.1836 21.125C69.1484 21.5 69.1191 21.7988 69.0957 22.0215C69.084 22.2441 69.0723 22.4492 69.0605 22.6367C69.0488 22.6953 69.0312 22.8418 69.0078 23.0762C68.9844 23.2988 68.9551 23.5684 68.9199 23.8848C68.8848 24.2012 68.8496 24.541 68.8145 24.9043C68.7793 25.2559 68.7441 25.5898 68.709 25.9062C68.6855 26.2227 68.6621 26.498 68.6387 26.7324C68.627 26.9551 68.6211 27.0957 68.6211 27.1543C68.6211 27.248 68.6211 27.3301 68.6211 27.4004C68.6328 27.459 68.6387 27.5176 68.6387 27.5762C68.6387 27.6699 68.5918 27.752 68.498 27.8223C68.416 27.8809 68.2227 27.9512 67.918 28.0332L63.3301 29.6328C63.2012 29.6797 63.0312 29.7383 62.8203 29.8086C62.6094 29.8789 62.4043 29.9141 62.2051 29.9141C62.0293 29.9141 61.8828 29.8613 61.7656 29.7559C61.6484 29.6621 61.5898 29.498 61.5898 29.2637L63.5938 3.44141ZM94.4082 15.4473C94.2441 16.6777 94.0859 17.9082 93.9336 19.1387C93.793 20.3574 93.7051 21.5 93.6699 22.5664C93.6699 23.0234 93.7051 23.4043 93.7754 23.709C93.8457 24.0137 93.9453 24.2539 94.0742 24.4297C94.2148 24.6055 94.3789 24.7344 94.5664 24.8164C94.7539 24.8867 94.9648 24.9219 95.1992 24.9219C95.5742 24.9219 95.9844 24.8691 96.4297 24.7637C96.875 24.6465 97.3203 24.5 97.7656 24.3242C97.9062 24.2656 98.0234 24.2246 98.1172 24.2012C98.2227 24.166 98.3105 24.1484 98.3809 24.1484C98.498 24.1484 98.5742 24.2012 98.6094 24.3066C98.6562 24.4121 98.6973 24.5996 98.7324 24.8691C98.7793 25.127 98.8438 25.4785 98.9258 25.9238C99.0078 26.3691 99.1426 26.9316 99.3301 27.6113C99.3418 27.6699 99.3477 27.7227 99.3477 27.7695C99.3594 27.8047 99.3652 27.8398 99.3652 27.875C99.3652 28.0391 99.3008 28.1562 99.1719 28.2266C99.0547 28.2969 98.8555 28.3789 98.5742 28.4727C98.0938 28.6367 97.584 28.8066 97.0449 28.9824C96.5176 29.1465 95.9902 29.2988 95.4629 29.4395C94.9473 29.5801 94.4492 29.6914 93.9688 29.7734C93.4883 29.8672 93.0664 29.9141 92.7031 29.9141C90.7461 29.9141 89.3164 29.4277 88.4141 28.4551C87.5234 27.4824 87.0781 26 87.0781 24.0078C87.0781 23.668 87.0898 23.3223 87.1133 22.9707C87.1367 22.6074 87.166 22.2324 87.2012 21.8457C87.3184 20.6738 87.418 19.5664 87.5 18.5234C87.5938 17.4688 87.6875 16.4609 87.7812 15.5H85.9355C85.3027 15.5 84.8457 15.4766 84.5645 15.4297C84.2832 15.3711 84.1426 15.2598 84.1426 15.0957C84.1426 15.0488 84.2012 14.9258 84.3184 14.7266C84.4355 14.5156 84.582 14.2695 84.7578 13.9883C84.9453 13.6953 85.1445 13.3848 85.3555 13.0566C85.5664 12.7285 85.7656 12.4238 85.9531 12.1426C86.1523 11.8496 86.3223 11.5977 86.4629 11.3867C86.6035 11.1758 86.6914 11.0469 86.7266 11H87.9746C88.0801 10.1094 88.1621 9.36523 88.2207 8.76758C88.291 8.1582 88.3438 7.6543 88.3789 7.25586C88.4258 6.85742 88.4668 6.55273 88.502 6.3418C88.5371 6.11914 88.5723 5.95508 88.6074 5.84961C88.6543 5.74414 88.707 5.67969 88.7656 5.65625C88.8359 5.62109 88.9238 5.5918 89.0293 5.56836C89.5566 5.46289 90.0664 5.36914 90.5586 5.28711C91.0508 5.19336 91.543 5.09961 92.0352 5.00586C92.5273 4.91211 93.0254 4.80664 93.5293 4.68945C94.0449 4.56055 94.5781 4.41406 95.1289 4.25C95.1641 4.25 95.1875 4.25 95.1992 4.25C95.2109 4.23828 95.2344 4.23242 95.2695 4.23242C95.4102 4.23242 95.4805 4.2793 95.4805 4.37305V4.4082C95.4219 5.05273 95.3281 5.94922 95.1992 7.09766C95.082 8.24609 94.9473 9.54688 94.7949 11H99.5059C99.5996 11 99.6875 11.0352 99.7695 11.1055C99.8633 11.1641 99.9102 11.2695 99.9102 11.4219C99.9102 11.4805 99.8398 11.6914 99.6992 12.0547C99.5586 12.418 99.3594 12.8926 99.1016 13.4785L98.4688 14.9023C98.3867 15.0781 98.2988 15.207 98.2051 15.2891C98.123 15.3711 97.9473 15.4238 97.6777 15.4473H94.4082ZM103.32 29.2637C103.332 29.1348 103.355 28.8594 103.391 28.4375C103.438 28.0039 103.49 27.459 103.549 26.8027C103.607 26.1465 103.672 25.3965 103.742 24.5527C103.824 23.6973 103.912 22.7832 104.006 21.8105C104.1 20.8262 104.193 19.8008 104.287 18.7344C104.393 17.668 104.498 16.5898 104.604 15.5H102.266C101.633 15.5 101.176 15.4766 100.895 15.4297C100.613 15.3711 100.473 15.2598 100.473 15.0957C100.473 15.0488 100.531 14.9258 100.648 14.7266C100.766 14.5156 100.912 14.2695 101.088 13.9883C101.275 13.6953 101.475 13.3848 101.686 13.0566C101.896 12.7285 102.096 12.4238 102.283 12.1426C102.482 11.8496 102.652 11.5977 102.793 11.3867C102.934 11.1758 103.021 11.0469 103.057 11H105.201L105.553 8.20508C105.717 6.72852 106.01 5.48633 106.432 4.47852C106.865 3.4707 107.398 2.65625 108.031 2.03516C108.676 1.41406 109.408 0.96875 110.229 0.699219C111.049 0.429688 111.928 0.294922 112.865 0.294922C113.803 0.294922 114.775 0.412109 115.783 0.646484C116.803 0.869141 117.828 1.17969 118.859 1.57812C119.082 1.67187 119.246 1.75391 119.352 1.82422C119.469 1.88281 119.527 1.96484 119.527 2.07031C119.527 2.16406 119.486 2.28711 119.404 2.43945C119.029 3.16602 118.748 3.75195 118.561 4.19727C118.385 4.64258 118.244 4.99414 118.139 5.25195C118.033 5.50977 117.945 5.68555 117.875 5.7793C117.805 5.86133 117.699 5.90234 117.559 5.90234C117.488 5.90234 117.412 5.88477 117.33 5.84961C117.26 5.81445 117.172 5.77344 117.066 5.72656C116.656 5.57422 116.24 5.43945 115.818 5.32227C115.408 5.19336 115.016 5.12891 114.641 5.12891C114.113 5.12891 113.656 5.29297 113.27 5.62109C112.895 5.94922 112.596 6.57031 112.373 7.48438C112.244 8.01172 112.139 8.58008 112.057 9.18945C111.975 9.79883 111.904 10.4023 111.846 11H116.434C116.527 11 116.615 11.0352 116.697 11.1055C116.791 11.1641 116.838 11.2695 116.838 11.4219C116.838 11.4805 116.768 11.6914 116.627 12.0547C116.486 12.418 116.287 12.8926 116.029 13.4785L115.396 14.9023C115.314 15.0781 115.227 15.207 115.133 15.2891C115.051 15.3711 114.875 15.4238 114.605 15.4473H111.564C111.436 16.666 111.312 17.873 111.195 19.0684C111.078 20.2637 110.967 21.3887 110.861 22.4434C110.756 23.4863 110.662 24.418 110.58 25.2383C110.498 26.0469 110.434 26.6738 110.387 27.1191C110.375 27.1543 110.369 27.2188 110.369 27.3125C110.369 27.3594 110.369 27.4004 110.369 27.4355C110.381 27.4707 110.387 27.5 110.387 27.5234C110.387 27.6289 110.346 27.7168 110.264 27.7871C110.193 27.8457 110 27.916 109.684 27.998L105.061 29.6328C104.932 29.6797 104.762 29.7383 104.551 29.8086C104.34 29.8789 104.135 29.9141 103.936 29.9141C103.736 29.9141 103.584 29.8672 103.479 29.7734C103.373 29.6797 103.32 29.5098 103.32 29.2637ZM135.049 25.4668C135.037 25.5137 135.031 25.5605 135.031 25.6074C135.031 25.6426 135.031 25.6777 135.031 25.7129C135.031 26.0059 135.078 26.252 135.172 26.4512C135.266 26.6387 135.365 26.7969 135.471 26.9258C135.588 27.043 135.693 27.1426 135.787 27.2246C135.881 27.2949 135.928 27.3594 135.928 27.418C135.928 27.582 135.752 27.7344 135.4 27.875L130.672 29.8965C130.66 29.9082 130.619 29.9141 130.549 29.9141C130.455 29.9141 130.361 29.832 130.268 29.668C130.174 29.5039 130.08 29.293 129.986 29.0352C129.904 28.7891 129.822 28.5254 129.74 28.2441C129.67 27.9512 129.605 27.6816 129.547 27.4355C128.809 28.291 128.012 28.918 127.156 29.3164C126.301 29.7148 125.451 29.9141 124.607 29.9141C123.623 29.9141 122.662 29.6973 121.725 29.2637C120.787 28.8301 119.955 28.2148 119.229 27.418C118.502 26.6094 117.916 25.6367 117.471 24.5C117.037 23.3633 116.82 22.0859 116.82 20.668C116.82 18.9922 117.061 17.4629 117.541 16.0801C118.033 14.6973 118.695 13.5078 119.527 12.5117C120.359 11.5156 121.326 10.748 122.428 10.209C123.541 9.6582 124.719 9.38281 125.961 9.38281C126.84 9.38281 127.672 9.56445 128.457 9.92773C129.242 10.2793 129.986 10.7363 130.689 11.2988C130.76 10.9473 130.801 10.666 130.812 10.4551C130.824 10.2441 130.848 10.0801 130.883 9.96289C130.93 9.8457 131.012 9.76953 131.129 9.73438C131.246 9.6875 131.439 9.65234 131.709 9.62891C132.553 9.51172 133.391 9.40625 134.223 9.3125C135.066 9.20703 135.945 9.13086 136.859 9.08398L135.049 25.4668ZM129.793 18.8398C129.91 18.1719 129.986 17.5449 130.021 16.959C130.068 16.3613 130.104 15.8164 130.127 15.3242C129.939 15.1836 129.734 15.0371 129.512 14.8848C129.301 14.7324 129.066 14.5918 128.809 14.4629C128.562 14.3223 128.299 14.2109 128.018 14.1289C127.748 14.0469 127.461 14.0059 127.156 14.0059C126.523 14.0059 125.99 14.2109 125.557 14.6211C125.135 15.0312 124.789 15.5352 124.52 16.1328C124.262 16.7305 124.074 17.3633 123.957 18.0312C123.852 18.6992 123.799 19.291 123.799 19.8066C123.799 21.6582 124.039 23.0176 124.52 23.8848C125.012 24.7402 125.691 25.168 126.559 25.168C126.91 25.168 127.303 25.0684 127.736 24.8691C128.17 24.6699 128.609 24.3945 129.055 24.043L129.793 18.8398ZM140.252 14.1289C140.393 12.5234 140.504 10.9355 140.586 9.36523C140.68 7.79492 140.779 6.18359 140.885 4.53125C140.908 4.14453 140.943 3.88086 140.99 3.74023C141.049 3.58789 141.184 3.48828 141.395 3.44141C142.484 3.24219 143.574 3.04297 144.664 2.84375C145.766 2.63281 146.867 2.35742 147.969 2.01758C148.004 2.00586 148.057 2 148.127 2C148.256 2 148.32 2.05859 148.32 2.17578L146.035 27.2773V27.5762C146.035 27.6816 145.994 27.7695 145.912 27.8398C145.83 27.8984 145.637 27.9688 145.332 28.0508L140.727 29.7383C140.598 29.7969 140.428 29.8555 140.217 29.9141C140.006 29.9844 139.801 30.0195 139.602 30.0195C139.438 30.0195 139.291 29.9785 139.162 29.8965C139.045 29.8145 138.986 29.6738 138.986 29.4746V29.3691C139.08 28.1855 139.168 27.0312 139.25 25.9062C139.344 24.7695 139.438 23.5977 139.531 22.3906C139.637 21.1836 139.748 19.9062 139.865 18.5586C139.982 17.2109 140.111 15.7344 140.252 14.1289ZM151.186 14.1289C151.326 12.5234 151.438 10.9355 151.52 9.36523C151.613 7.79492 151.713 6.18359 151.818 4.53125C151.842 4.14453 151.877 3.88086 151.924 3.74023C151.982 3.58789 152.117 3.48828 152.328 3.44141C153.418 3.24219 154.508 3.04297 155.598 2.84375C156.699 2.63281 157.801 2.35742 158.902 2.01758C158.938 2.00586 158.99 2 159.061 2C159.189 2 159.254 2.05859 159.254 2.17578L156.969 27.2773V27.5762C156.969 27.6816 156.928 27.7695 156.846 27.8398C156.764 27.8984 156.57 27.9688 156.266 28.0508L151.66 29.7383C151.531 29.7969 151.361 29.8555 151.15 29.9141C150.939 29.9844 150.734 30.0195 150.535 30.0195C150.371 30.0195 150.225 29.9785 150.096 29.8965C149.979 29.8145 149.92 29.6738 149.92 29.4746V29.3691C150.014 28.1855 150.102 27.0312 150.184 25.9062C150.277 24.7695 150.371 23.5977 150.465 22.3906C150.57 21.1836 150.682 19.9062 150.799 18.5586C150.916 17.2109 151.045 15.7344 151.186 14.1289Z" fill="#C0C6CC"/>
</g>
<defs>
<filter id="filter0_d_3_8" x="0.654297" y="0.294922" width="162.6" height="46.1445" filterUnits="userSpaceOnUse" color-interpolation-filters="sRGB">
<feFlood flood-opacity="0" result="BackgroundImageFix"/>
<feColorMatrix in="SourceAlpha" type="matrix" values="0 0 0 0 0 0 0 0 0 0 0 0 0 0 0 0 0 0 127 0" result="hardAlpha"/>
<feOffset dy="4"/>
<feGaussianBlur stdDeviation="2"/>
<feComposite in2="hardAlpha" operator="out"/>
<feColorMatrix type="matrix" values="0 0 0 0 0.290196 0 0 0 0 0.564706 0 0 0 0 0.886275 0 0 0 1 0"/>
<feBlend mode="normal" in2="BackgroundImageFix" result="effect1_dropShadow_3_8"/>
<feBlend mode="normal" in="SourceGraphic" in2="effect1_dropShadow_3_8" result="shape"/>
</filter>
</defs>
</svg>
